<svg width="27" height="24" viewBox="0 0 27 24" fill="none" xmlns="http://www.w3.org/2000/svg">
<path d="M22 18.5V10.3613C22 9.49622 21.6266 8.67324 20.9755 8.10358L15.9755 3.72857C14.8444 2.73888 13.1556 2.73888 12.0245 3.72857L7.02449 8.10357C6.37344 8.67324 6 9.49622 6 10.3613V18.5C6 19.3284 6.67157 20 7.5 20H9.5C10.3284 20 11 19.3284 11 18.5V16C11 14.3431 12.3431 13 14 13C15.6569 13 17 14.3431 17 16V18.5C17 19.3284 17.6716 20 18.5 20H20.5C21.3284 20 22 19.3284 22 18.5Z" stroke="#262F56" stroke-width="1.8"/>
<path d="M5.23832 2.4453C5.42378 2.1671 5.73601 2 6.07037 2H21.7639C22.1427 2 22.489 2.214 22.6584 2.55279L23.5528 2.10557L22.6584 2.55279L25.1584 7.55279C25.4908 8.21769 25.0073 9 24.2639 9H2.73703C1.93834 9 1.46195 8.10985 1.90498 7.4453L5.23832 2.4453Z" fill="white" stroke="#262F56" stroke-width="2"/>
</svg>
