<svg width="24" height="24" viewBox="0 0 24 24" fill="none" xmlns="http://www.w3.org/2000/svg">
<path fill-rule="evenodd" clip-rule="evenodd" d="M10 2.15C8.42599 2.15 7.15 3.42599 7.15 5V6H4C2.34315 6 1 7.34315 1 9V13.1H7.1V11.5C7.1 11.0029 7.50294 10.6 8 10.6C8.49706 10.6 8.9 11.0029 8.9 11.5V13.1H15.1V11.5C15.1 11.0029 15.5029 10.6 16 10.6C16.4971 10.6 16.9 11.0029 16.9 11.5V13.1H23V9C23 7.34315 21.6569 6 20 6H16.85V5C16.85 3.42599 15.574 2.15 14 2.15H10ZM15.15 6V5C15.15 4.36487 14.6351 3.85 14 3.85H10C9.36487 3.85 8.85 4.36487 8.85 5V6H15.15ZM4 22H20C21.6569 22 23 20.6569 23 19V14.9H16.9V16.5C16.9 16.9971 16.4971 17.4 16 17.4C15.5029 17.4 15.1 16.9971 15.1 16.5V14.9H8.9V16.5C8.9 16.9971 8.49706 17.4 8 17.4C7.50294 17.4 7.1 16.9971 7.1 16.5V14.9H1V19C1 20.6569 2.34315 22 4 22Z" fill="white"/>
</svg>
