<svg width="24" height="24" viewBox="0 0 24 24" fill="none" xmlns="http://www.w3.org/2000/svg">
<path d="M18 16.5V8.3613C18 7.49622 17.6266 6.67324 16.9755 6.10358L11.9755 1.72857C10.8444 0.738881 9.15557 0.738879 8.02449 1.72857L3.02449 6.10357C2.37344 6.67324 2 7.49622 2 8.3613V16.5C2 17.3284 2.67157 18 3.5 18H5.5C6.32843 18 7 17.3284 7 16.5V14C7 12.3431 8.34315 11 10 11C11.6569 11 13 12.3431 13 14V16.5C13 17.3284 13.6716 18 14.5 18H16.5C17.3284 18 18 17.3284 18 16.5Z" stroke="white" stroke-width="1.8"/>
</svg>
