<svg width="25" height="25" viewBox="0 0 25 25" fill="none" xmlns="http://www.w3.org/2000/svg">
<path d="M12.0349 19.4562L22.1771 16.7386M1.58057 3.62244L2.54649 3.36362C3.61342 3.07773 4.7101 3.7109 4.99598 4.77783L8.36063 17.3349M16.0187 11.1418L14.9834 7.27809M14.9834 7.27809L13.9227 9.11521M14.9834 7.27809L16.8205 8.33875M20.1666 5.37162L21.4607 10.2013C21.8895 11.8016 20.9398 13.4467 19.3394 13.8755L14.5097 15.1696C12.9093 15.5984 11.2643 14.6487 10.8355 13.0483L9.54141 8.21863C9.11258 6.61823 10.0623 4.97322 11.6627 4.5444L16.4924 3.2503C18.0928 2.82148 19.7378 3.77122 20.1666 5.37162Z" stroke="#262F56" stroke-width="1.8" stroke-linecap="round" stroke-linejoin="round"/>
<circle cx="9.13713" cy="20.2326" r="3" transform="rotate(-15 9.13713 20.2326)" stroke="#262F56" stroke-width="1.8"/>
</svg>
