<svg width="24" height="24" viewBox="0 0 24 24" fill="none" xmlns="http://www.w3.org/2000/svg">
<path fill-rule="evenodd" clip-rule="evenodd" d="M9.89961 8.39446C9.49335 10.173 7.90165 11.5 6 11.5C3.79086 11.5 2 9.70914 2 7.5C2 5.29086 3.79086 3.5 6 3.5C7.90165 3.5 9.49335 4.82701 9.89961 6.60554C9.93257 6.60188 9.96607 6.6 10 6.6H19C19.4971 6.6 19.9 7.00294 19.9 7.5C19.9 7.99706 19.4971 8.4 19 8.4H10C9.96607 8.4 9.93257 8.39812 9.89961 8.39446ZM4.1 16.5C4.1 16.0029 4.50294 15.6 5 15.6H14C14.0339 15.6 14.0674 15.6019 14.1004 15.6055C14.5066 13.827 16.0984 12.5 18 12.5C20.2091 12.5 22 14.2909 22 16.5C22 18.7091 20.2091 20.5 18 20.5C16.0984 20.5 14.5066 19.173 14.1004 17.3945C14.0674 17.3981 14.0339 17.4 14 17.4H5C4.50294 17.4 4.1 16.9971 4.1 16.5Z" fill="white"/>
</svg>
